Coordinates
version=1
nRows=8
nColumns=63
inDegrees=yes

Units are S.I. units (second, meters, Newtons, ...)
If the header above contains a line with 'inDegrees', this indicates whether rotational values are in degrees (yes) or radians (no).

endheader
time	pelvis_tilt	pelvis_list	pelvis_rotation	pelvis_tx	pelvis_ty	pelvis_tz	hip_flexion_r	hip_adduction_r	hip_rotation_r	knee_angle_r	knee_angle_r_beta	ankle_angle_r	subtalar_angle_r	mtp_angle_r	hip_flexion_l	hip_adduction_l	hip_rotation_l	knee_angle_l	knee_angle_l_beta	ankle_angle_l	subtalar_angle_l	mtp_angle_l	L5_S1_Flex_Ext	L5_S1_Lat_Bending	L5_S1_axial_rotation	L4_L5_Flex_Ext	L4_L5_Lat_Bending	L4_L5_axial_rotation	L3_L4_Flex_Ext	L3_L4_Lat_Bending	L3_L4_axial_rotation	L2_L3_Flex_Ext	L2_L3_Lat_Bending	L2_L3_axial_rotation	L1_L2_Flex_Ext	L1_L2_Lat_Bending	L1_L2_axial_rotation	L1_T12_Flex_Ext	L1_T12_Lat_Bending	L1_T12_axial_rotation	Abs_r3	Abs_r2	Abs_r1	Abs_t1	Abs_t2	neck_flexion	neck_bending	neck_rotation	arm_flex_r	arm_add_r	arm_rot_r	elbow_flex_r	pro_sup_r	wrist_flex_r	wrist_dev_r	arm_flex_l	arm_add_l	arm_rot_l	elbow_flex_l	pro_sup_l	wrist_flex_l	wrist_dev_l
      3.62711864	     -4.75638807	     -9.07436674	     77.72696313	      0.20194145	      0.85489328	      0.68232757	     10.42481828	     -7.31736635	     -7.34475439	      9.07981583	      0.15847268	     23.10852315	     16.50319096	      0.00000000	      5.64337347	      3.61722029	     -7.89319647	      6.74032891	      0.11764093	     15.86519672	     -7.68738864	      0.00000000	     -0.38558416	      0.09728203	     -2.00572215	     -0.71606834	      0.12938509	     -2.13107979	     -0.63347621	      0.23653152	     -2.13107979	     -0.44068414	      0.23653152	     -1.75500688	     -0.35805345	      0.19837751	     -1.62964925	     -0.22032279	      0.15068986	     -1.50429162	     -2.75418909	      1.10047373	    -11.15522490	      0.00000000	      0.00000000	      5.06901117	     -2.44711025	     -9.46182878	     80.03914938	    -11.95959510	     58.45538364	      6.08487502	     78.29573096	     12.35489911	     29.14673296	    122.51784438	    -28.40963905	     36.54777595	    107.93578387	     86.44076324	     21.83614735	      2.84356395
      3.64406780	     -4.94586698	     -9.13187497	     77.72167783	      0.20248236	      0.85451262	      0.68181262	     10.46911009	     -7.48567281	     -7.42816103	      9.06000059	      0.15812684	     23.28606885	     16.49638345	      0.00000000	      5.78648112	      3.75225803	     -8.18495139	      6.97505370	      0.12173765	     15.77509807	     -7.57037142	      0.00000000	     -0.38363129	      0.07537484	     -1.99481437	     -0.71244167	      0.10024853	     -2.11949027	     -0.63026785	      0.18326638	     -2.11949027	     -0.43845220	      0.18326638	     -1.74546257	     -0.35624002	      0.15370437	     -1.62078667	     -0.21920692	      0.11675562	     -1.49611078	     -2.74023996	      0.85265522	    -11.09455907	      0.00000000	      0.00000000	      5.32980373	     -2.91772840	     -9.53495441	     78.96904165	    -12.52814680	     60.39646189	      7.43610629	     77.46277326	     11.21484564	     29.17289497	    122.78998081	    -28.71671266	     37.01667052	    107.10956637	     82.34530221	     24.40535852	      6.39171671
      3.66101695	     -5.09424921	     -9.24522328	     77.75603366	      0.20300328	      0.85407508	      0.68112376	     10.52840682	     -7.59191868	     -7.47717021	      8.99589153	      0.15700793	     23.42641994	     16.35331180	      0.00000000	      5.92254117	      3.84429918	     -8.32948364	      7.16119737	      0.12498647	     15.54681799	     -7.59494930	      0.00000000	     -0.37247705	      0.06289684	     -1.97930827	     -0.69172714	      0.08365279	     -2.10301503	     -0.61194255	      0.15292737	     -2.10301503	     -0.42570402	      0.15292737	     -1.73189473	     -0.34588219	      0.12825923	     -1.60818797	     -0.21283339	      0.09742720	     -1.48448120	     -2.66056634	      0.71150160	    -11.00831878	      0.00000000	      0.00000000	      5.48325829	     -3.76222429	     -9.64491199	     78.10361489	    -12.80398079	     62.68335834	      8.19631455	     75.36912947	     10.75866079	     29.83981488	    123.19379193	    -29.36672556	     38.01862087	    106.36439637	     74.89038870	     26.02928765	     11.51394587
      3.67796610	     -5.18844687	     -9.34622772	     77.93121648	      0.20325649	      0.85375762	      0.68044286	     10.55890936	     -7.67810486	     -7.72519155	      8.99488497	      0.15699036	     23.58907734	     16.25701070	      0.00000000	      6.01741146	      3.91004868	     -8.24833193	      7.34317744	      0.12816262	     15.18561251	     -7.78534919	      0.00000000	     -0.36347109	      0.05851785	     -1.96921085	     -0.67500216	      0.07782874	     -2.09228653	     -0.59714665	      0.14228030	     -2.09228653	     -0.41541111	      0.14228030	     -1.72305949	     -0.33751925	      0.11932960	     -1.59998381	     -0.20768738	      0.09064415	     -1.47690814	     -2.59623765	      0.66196561	    -10.95215997	      0.00000000	      0.00000000	      5.44155700	     -5.14405475	     -9.97497360	     77.31358642	    -12.77771616	     63.97693077	      8.42714544	     73.25888040	     10.49236694	     31.00695980	    123.42850851	    -30.14832636	     38.87158920	    105.96730152	     69.35231817	     26.74675273	     16.43757430
      3.69491525	     -5.27210565	     -9.43706507	     78.17496923	      0.20350493	      0.85341669	      0.67959913	     10.53886745	     -7.74903312	     -7.81232518	      8.97179530	      0.15658737	     23.76109677	     15.94096242	      0.00000000	      6.04638899	      3.98498028	     -8.00414901	      7.44421406	      0.12992605	     14.75974052	     -8.15306013	      0.00000000	     -0.34871062	      0.05365785	     -1.96901161	     -0.64759049	      0.07136494	     -2.09207484	     -0.57289667	      0.13046370	     -2.09207484	     -0.39854136	      0.13046370	     -1.72288516	     -0.32381268	      0.10941909	     -1.59982194	     -0.19925325	      0.08311601	     -1.47675871	     -2.49080507	      0.60698833	    -10.95105190	      0.00000000	      0.00000000	      5.22956128	     -6.39845964	     -9.96555586	     76.54120959	    -12.53558882	     65.06461982	      8.35409445	     70.39017372	     10.48145739	     31.95625096	    123.61248351	    -30.99925399	     39.66710260	    105.86419850	     63.41611917	     26.86280641	     22.51625136
      3.71186441	     -5.22741305	     -9.54540262	     78.58400400	      0.20329291	      0.85337534	      0.67876650	     10.44022985	     -7.71487668	     -7.87331884	      8.87665059	      0.15492678	     23.73908632	     15.54616006	      0.00000000	      6.08972429	      3.95399334	     -7.51499194	      7.53888432	      0.13157835	     14.25732864	     -8.49328336	      0.00000000	     -0.33196676	      0.06718903	     -1.96597795	     -0.61649547	      0.08936141	     -2.08885157	     -0.54538819	      0.16336340	     -2.08885157	     -0.37940481	      0.16336340	     -1.72023070	     -0.30826434	      0.13701186	     -1.59735708	     -0.18968581	      0.10407580	     -1.47448346	     -2.37120539	      0.76005572	    -10.93417954	      0.00000000	      0.00000000	      4.76480058	     -8.08013328	     -9.92689463	     75.72535338	    -12.25690491	     64.67250083	      8.03891937	     66.48913147	     10.02709293	     32.66930810	    123.33442853	    -31.66703224	     39.85658823	    106.09558996	     58.80446336	     26.67482810	     28.45877837
      3.72881356	     -5.11094925	     -9.65593384	     79.08651824	      0.20290012	      0.85336734	      0.67790636	     10.30026781	     -7.63336331	     -8.02967778	      8.77337603	      0.15312430	     23.62906188	     15.13564938	      0.00000000	      6.10227808	      3.85816453	     -6.97862554	      7.54702667	      0.13172046	     13.97309354	     -8.51099512	      0.00000000	     -0.31215350	      0.08521201	     -1.93988093	     -0.57970026	      0.11333197	     -2.06112349	     -0.51283698	      0.20718448	     -2.06112349	     -0.35676023	      0.20718448	     -1.69739582	     -0.28986574	      0.17376433	     -1.57615326	     -0.17836451	      0.13199340	     -1.45491070	     -2.22968120	      0.96393529	    -10.78903579	      0.00000000	      0.00000000	      4.25115327	     -9.56680136	     -9.52949168	     74.84373223	    -12.17227411	     62.52960804	      7.93400625	     63.18321722	      9.26336824	     32.99405013	    122.69172915	    -32.06128378	     39.57039287	    106.43093691	     57.90224554	     26.47428050	     31.77395616
      3.74576271	     -5.00285057	     -9.76051836	     79.62001624	      0.20250039	      0.85337059	      0.67686552	     10.14016328	     -7.57782456	     -8.08650858	      8.68379058	      0.15156074	     23.52832764	     14.74523523	      0.00000000	      6.09638461	      3.79577430	     -6.33560990	      7.45302225	      0.13007978	     13.83758481	     -8.59785368	      0.00000000	     -0.29203399	      0.09529960	     -1.89435946	     -0.54233632	      0.12674846	     -2.01275693	     -0.47978264	      0.23171144	     -2.01275693	     -0.33376564	      0.23171144	     -1.65756453	     -0.27118276	      0.19433494	     -1.53916706	     -0.16686822	      0.14761908	     -1.42076960	     -2.08596956	      1.07804811	    -10.53585902	      0.00000000	      0.00000000	      3.74252586	    -10.34965601	     -8.64851618	     73.96926442	    -12.58972898	     60.77068723	      8.70622880	     60.46188757	      8.46486290	     32.89572155	    122.08370029	    -32.34345394	     39.20872655	    106.86192062	     57.45677780	     26.22900738	     33.37194160
